<?xml version="1.0" encoding="UTF-8"?>
<svg version="1.1" viewBox="0 0 2048 492" width="1024" height="246" xmlns="http://www.w3.org/2000/svg">
<path transform="translate(1628,94)" d="m0 0h37l1 2-1 140-2 15 5-5 11-13 7-8 11-12 16-17 14-15 12-13 2-1h42l-2 4-8 8-7 8-7 7-7 8-9 9-7 8-8 8-7 8-8 8 2 4 10 13 14 19 16 21 15 20 16 21 2 4h-44l-7-8-12-17-28-38-9-12v-2l-7 4-12 11-2 1-1 4v57h-39v-250z" fill="#E03536"/>
<path transform="translate(1442,164)" d="m0 0h16l14 2 15 5 11 6 10 8 7 7 9 14 6 15 3 14 1 7v29l-3 17-5 15-6 11-8 10-7 7-14 9-14 5-15 3-17 1-20-3-16-6-14-9-10-10-9-14-6-14-4-16-1-7v-28l3-17 6-17 7-12 8-10 10-8 10-6 14-5zm-3 32-12 4-9 7-7 10-5 14-2 16v19l2 14 4 13 6 10 8 8 11 5 5 1h19l10-3 10-6 8-10 5-13 2-9 1-14v-14l-2-16-4-13-6-10-9-8-10-4-4-1z" fill="#F4AD08"/>
<path transform="translate(1862,164)" d="m0 0h16l14 2 15 5 11 6 10 8 9 10 8 13 5 13 4 20v31l-4 19-6 16-7 11-9 10-10 8-14 7-15 4-17 2-16-1-14-3-15-6-13-9-9-9-9-14-6-14-4-17-1-6v-28l3-17 6-17 7-12 9-11 12-9 12-6 14-4zm-3 32-10 3-9 6-6 7-6 12-3 13-1 10v19l2 14 4 13 6 10 8 8 8 4 8 2h19l10-3 10-6 8-10 5-13 2-9 1-14 1-6-3-25-5-15-7-9-7-6-10-4-4-1z" fill="#0363CF"/>
<path transform="translate(942,164)" d="m0 0h16l14 2 15 5 11 7 10 9 7 9 7 14 4 17 1 10v28l-119 1 1 11 3 12 6 11 7 8 14 7 9 2h26l18-3 24-8h2v30l-8 4-16 5-19 3-12 1h-10l-18-2-17-5-14-7-10-8-7-7-9-14-5-12-3-11-2-13v-25l4-22 6-16 9-15 12-12 13-8 13-5zm2 29-12 3-11 8-6 8-4 9-2 8v10h80l1-3-2-15-5-12-8-9-9-5-9-2z" fill="#F4AD08"/>
<path transform="translate(565,164)" d="m0 0h15l14 2 13 4 11 6 11 9 8 10 7 14 4 14 2 21v21l-119 1v8l4 16 6 11 8 8 9 5 13 3h26l17-3 19-6 7-2v31l-19 7-15 3-20 2h-11l-22-3-15-5-13-7-10-9-7-7-8-13-5-13-4-20v-29l3-17 6-18 9-15 10-11 10-7 15-7 13-3zm2 29-10 2-10 6-7 7-6 12-3 12v6l1 1h79l1-1v-8l-4-16-6-9-9-8-8-3-6-1z" fill="#8DB81D"/>
<path transform="translate(328,164)" d="m0 0h14l14 2 12 4 10 6 9 8 6 10 4 13 2 18v120h-38l-1-115-2-12-6-12-6-5-10-4h-23l-12 4-10 9-6 12-4 17-1 106h-39v-177l1-1h28l2 2 4 19v4l6-5 7-8 9-6 8-4 14-4z" fill="#0363D0"/>
<path transform="translate(1157,167)" d="m0 0h127l1 1v26l-12 16-13 19-10 13-10 14-26 36-12 17-4 6 89 1 1 1v28h-137v-23l10-14 78-108 1-3-83-1-1-28z" fill="#E03735"/>
<path transform="translate(661,167)" d="m0 0h126l2 2v13l-1 12-26 36-10 14-39 54-11 16-1 2h89l1 1v28h-137v-23l14-19 12-17 26-36 14-19 13-18 9-13 2-4h-84v-28z" fill="#E03635"/>
<path transform="translate(808,94)" d="m0 0h38v251h-38l-1-2v-239z" fill="#0363D0"/>
<path transform="translate(1557,94)" d="m0 0h37l1 1v250h-39v-250z" fill="#8DB81D"/>
<path transform="translate(436,167)" d="m0 0h32l1 1v177h-39v-177z" fill="#F4AD08"/>
<path transform="translate(1312,167)" d="m0 0h30l1 1v177h-39v-177z" fill="#0363D0"/>
<path transform="translate(1021,376)" d="m0 0h141l1 1v20l-1 1h-141l-1-21z" fill="#8CB81B"/>
<path transform="translate(95,376)" d="m0 0h141l1 4v17l-1 1h-141z" fill="#E03934"/>
<path transform="translate(444,99)" d="m0 0h11l10 4 4 5 2 5v14l-3 6-7 6-8 2h-8l-8-3-5-4-3-5-1-4v-11l5-10 7-4z" fill="#F4AD08"/>
<path transform="translate(1318,99)" d="m0 0h11l8 3 6 5 2 5v15l-3 6-7 6-8 2h-7l-9-3-5-4-4-9v-10l3-8 7-6z" fill="#0363D0"/>
</svg>
